{
  "title": "Whiplash [2014] (No Cinavia) 1080p",
  "uid": 11738527,
  "size": 3875912373,
  "categoryP": "video",
  "categoryS": "hd___movies",
  "magnet": "?xt=urn:btih:83d7aed7a06472d112ef83523f9f24b3abed6806&amp;dn=Whiplash+%5B2014%5D+%28No+Cinavia%29+1080p&amp;tr=udp%3A%2F%2Ftracker.openbittorrent.com%3A80&amp;tr=udp%3A%2F%2Fopen.demonii.com%3A1337&amp;tr=udp%3A%2F%2Ftracker.coppersurfer.tk%3A6969&amp;tr=udp%3A%2F%2Fexodus.desync.com%3A6969",
  "seeders": 51,
  "leechers": 0,
  "uploader": "AlienMethod",
  "files": 7,
  "time": 1425656723,
  "description": "x264/mp4\nCinavia Removed/CinExHD\n2-Channel AAC@192kbps (audio 1)\n6-Channel AC3@640kbps (audio 2)\nEnglish Subs Incl.\n\n\n&quot;A promising young drummer enrolls at a cut-throat music conservatory where his \ndreams of greatness are mentored by an instructor who will stop at nothing to realize\na student's potential.&quot;\n\n\n\nGeneral\nComplete name : F:TorrentsWhiplash [2014] (NoCinavia) 1080p\nWhiplash [2014] (NoCinavia) 1080p.mp4\nFormat : MPEG-4\nFormat profile : Base Media\nCodec ID : isom\nFile size : 3.61 GiB\nDuration : 1h 46mn\nOverall bit rate mode : Variable\nOverall bit rate : 4 841 Kbps\nEncoded date : UTC 2015-03-05 22:48:13\nTagged date : UTC 2015-03-05 22:48:13\nWriting application : My MP4Box GUI 0.6.0.6 \n\nVideo\nID : 1\nFormat : AVC\nFormat/Info : Advanced Video Codec\nFormat profile : &lt;a class=&quot;__cf_email__&quot; href=&quot;/cdn-cgi/l/email-protection&quot; data-cfemail=&quot;0d45646a654d4139233d&quot;&gt;[email&amp;#160;protected]&lt;/a&gt;&lt;script cf-hash='f9e31' type=&quot;text/javascript&quot;&gt;\n/* &lt;![CDATA[ */!function(){try{var t=&quot;currentScript&quot;in document?document.currentScript:function(){for(var t=document.getElementsByTagName(&quot;script&quot;),e=t.length;e--;)if(t[e].getAttribute(&quot;cf-hash&quot;))return t[e]}();if(t&amp;&amp;t.previousSibling){var e,r,n,i,c=t.previousSibling,a=c.getAttribute(&quot;data-cfemail&quot;);if(a){for(e=&quot;&quot;,r=parseInt(a.substr(0,2),16),n=2;a.length-n;n+=2)i=parseInt(a.substr(n,2),16)^r,e+=String.fromCharCode(i);e=document.createTextNode(e),c.parentNode.replaceChild(e,c)}}}catch(u){}}();/* ]]&gt; */&lt;/script&gt;\nFormat settings, CABAC : Yes\nFormat settings, ReFrames : 4 frames\nFormat settings, GOP : M=1, N=2\nCodec ID : avc1\nCodec ID/Info : Advanced Video Coding\nDuration : 1h 46mn\nBit rate : 4 006 Kbps\nMaximum bit rate : 17.8 Mbps\nWidth : 1 920 pixels\nHeight : 798 pixels\nDisplay aspect ratio : 2.40:1\nFrame rate mode : Constant\nFrame rate : 23.976 fps\nColor space : YUV\nChroma subsampling : 4:2:0\nBit depth : 8 bits\nScan type : Progressive\nBits/(Pixel*Frame) : 0.109\nStream size : 2.99 GiB (83%)\nTitle : Whiplash (CinEx)_track1_und.h264\nWriting library : x264 core 142 r2491 24e4fed\nEncoded date : UTC 2015-03-05 22:48:13\nTagged date : UTC 2015-03-05 22:48:31\n\nAudio #1\nID : 2\nFormat : AAC\nFormat/Info : Advanced Audio Codec\nFormat profile : LC\nCodec ID : 40\nDuration : 1h 46mn\nBit rate mode : Variable\nBit rate : 192 Kbps\nMaximum bit rate : 252 Kbps\nChannel(s) : 2 channels\nChannel positions : Front: L R\nSampling rate : 48.0 KHz\nCompression mode : Lossy\nStream size : 146 MiB (4%)\nTitle : Whiplash (CinEx)_track2_und_Output.m4a\nEncoded date : UTC 2015-03-05 22:48:27\nTagged date : UTC 2015-03-05 22:48:31\n\nAudio #2\nID : 3\nFormat : AC-3\nFormat/Info : Audio Coding 3\nMode extension : CM (complete main)\nFormat settings, Endianness : Big\nCodec ID : ac-3\nDuration : 1h 46mn\nBit rate mode : Constant\nBit rate : 640 Kbps\nChannel(s) : 6 channels\nChannel positions : Front: L C R, Side: L R, LFE\nSampling rate : 48.0 KHz\nBit depth : 16 bits\nCompression mode : Lossy\nStream size : 489 MiB (13%)\nTitle : Whiplash (CinEx)_track2_und.ac3\nEncoded date : UTC 2015-03-05 22:48:28\nTagged date : UTC 2015-03-05 22:48:31\n\nm/ AM m/",
  "parsed": {
    "xt": "urn:btih:83d7aed7a06472d112ef83523f9f24b3abed6806",
    "dn": "Whiplash [2014] (No Cinavia) 1080p",
    "tr": [
      "udp://exodus.desync.com:6969",
      "udp://open.demonii.com:1337",
      "udp://tracker.coppersurfer.tk:6969",
      "udp://tracker.openbittorrent.com:80"
    ],
    "infoHash": "83d7aed7a06472d112ef83523f9f24b3abed6806",
    "infoHashBuffer": {
      "type": "Buffer",
      "data": [
        131,
        215,
        174,
        215,
        160,
        100,
        114,
        209,
        18,
        239,
        131,
        82,
        63,
        159,
        36,
        179,
        171,
        237,
        104,
        6
      ]
    },
    "name": "Whiplash [2014] (No Cinavia) 1080p",
    "announce": [
      "udp://exodus.desync.com:6969",
      "udp://open.demonii.com:1337",
      "udp://tracker.coppersurfer.tk:6969",
      "udp://tracker.openbittorrent.com:80"
    ],
    "urlList": []
  },
  "previous": 9,
  "peers": 9,
  "last_updated": "2016-12-27T05:36:40.328Z"
}